<svg width="14" height="15" viewBox="0 0 14 15" fill="none" xmlns="http://www.w3.org/2000/svg">
<path d="M3.11111 3V0.75C3.11111 0.54 3.1863 0.3625 3.33667 0.217501C3.48704 0.0725002 3.67111 0 3.88889 0H13.2222C13.44 0 13.6241 0.0725002 13.7744 0.217501C13.9248 0.3625 14 0.54 14 0.75V11.25C14 11.46 13.9248 11.6375 13.7744 11.7825C13.6241 11.9275 13.44 12 13.2222 12H10.8889V14.25C10.8889 14.46 10.8137 14.6375 10.6633 14.7825C10.513 14.9275 10.3289 15 10.1111 15H0.777778C0.56 15 0.375926 14.9275 0.225556 14.7825C0.0751852 14.6375 0 14.46 0 14.25V3.75C0 3.54 0.0777778 3.3625 0.233333 3.2175C0.388889 3.0725 0.57037 3 0.777778 3H3.11111ZM1.55556 4.5V13.5H9.33333V4.5H1.55556ZM4.66667 3H10.8889V10.5H12.4444V1.5H4.66667V3Z" fill="#6B7280"/>
</svg>
